<svg width="500" height="500" viewBox="0 0 500 500" fill="none" xmlns="http://www.w3.org/2000/svg">
<path d="M250 433.675C376.865 433.675 479.709 426.035 479.709 416.611C479.709 407.187 376.865 399.547 250 399.547C123.135 399.547 20.291 407.187 20.291 416.611C20.291 426.035 123.135 433.675 250 433.675Z" fill="#EDF0FC"/>
<path d="M420.413 146.09H128.93V407.573H420.413V146.09Z" fill="white"/>
<path d="M420.413 146.09H128.93V177.012H420.413V146.09Z" fill="#D0DBF7"/>
<path d="M152.446 161.55C152.446 164.83 149.787 167.49 146.506 167.49C143.226 167.49 140.567 164.831 140.567 161.55C140.567 158.269 143.226 155.611 146.506 155.611C149.787 155.61 152.446 158.269 152.446 161.55Z" fill="#E8E5E5"/>
<path d="M172.446 161.55C172.446 164.83 169.787 167.49 166.506 167.49C163.226 167.49 160.567 164.831 160.567 161.55C160.567 158.269 163.226 155.611 166.506 155.611C169.787 155.61 172.446 158.269 172.446 161.55Z" fill="#E8E5E5"/>
<path d="M192.446 161.55C192.446 164.83 189.787 167.49 186.506 167.49C183.225 167.49 180.567 164.831 180.567 161.55C180.567 158.269 183.226 155.611 186.506 155.611C189.786 155.611 192.446 158.269 192.446 161.55Z" fill="#E8E5E5"/>
<path d="M377.701 266.286C379.098 262.744 377.125 259.846 373.318 259.846H233.018C229.211 259.846 224.953 262.744 223.556 266.286L192.457 345.153C191.06 348.695 193.033 351.593 196.84 351.593H337.14C340.947 351.593 345.205 348.695 346.602 345.153L377.701 266.286Z" fill="#1E77CA"/>
<path d="M185.732 338.426L216.831 259.559C218.228 256.017 222.485 253.119 226.293 253.119H336.43V246.13C336.43 242.323 333.315 239.208 329.508 239.208H280.378C276.571 239.208 271.97 236.47 270.153 233.124L263.463 220.801C261.647 217.455 257.045 214.717 253.238 214.717H190.114C186.307 214.717 183.192 217.832 183.192 221.639V337.941C183.192 341.284 185.595 344.092 188.759 344.727C185.862 344.12 184.512 341.519 185.732 338.426Z" fill="#1E77CA"/>
<path d="M287.67 281.67C273.224 281.67 261.512 293.381 261.512 307.828C261.512 322.275 273.223 333.986 287.67 333.986C302.117 333.986 313.828 322.275 313.828 307.828C313.827 293.382 302.116 281.67 287.67 281.67ZM300.469 316.857L296.7 320.626L287.67 311.597L278.64 320.626L274.871 316.857L283.901 307.828L274.871 298.799L278.64 295.03L287.67 304.06L296.7 295.03L300.469 298.799L291.439 307.828L300.469 316.857Z" fill="white"/>
<path d="M404.666 366.51L263.271 406.873L265.751 415.558L407.145 375.195L404.666 366.51Z" fill="#1E77CA"/>
<path d="M404.666 366.51L340.187 384.916L342.666 393.601L407.145 375.195L404.666 366.51Z" fill="#1E77CA"/>
<path d="M409.749 415.919C434.656 413.802 453.132 391.894 451.014 366.986C448.897 342.079 426.989 323.604 402.082 325.721C377.174 327.838 358.699 349.746 360.816 374.654C362.933 399.561 384.841 418.036 409.749 415.919Z" fill="#1E77CA"/>
<path d="M439.214 385.663C447.408 367.283 439.15 345.741 420.771 337.548C402.392 329.354 380.85 337.611 372.656 355.991C364.463 374.37 372.72 395.912 391.099 404.105C409.478 412.299 431.02 404.042 439.214 385.663Z" fill="#D0DBF7"/>
<path d="M433.294 363.018L428.952 364.258C425.324 351.551 412.035 344.165 399.328 347.793L398.088 343.451C413.189 339.139 428.983 347.918 433.294 363.018Z" fill="white"/>
<path d="M372.174 144.441L328.852 131.307L302.803 217.231L370.118 237.639L389.097 175.034L372.174 144.441Z" fill="#E2E6FF"/>
<path d="M367.797 178.403L364.702 172.613L350.832 180.029L343.415 166.16L337.626 169.256L345.043 183.125L331.173 190.541L334.268 196.331L348.138 188.914L355.555 202.784L361.345 199.688L353.928 185.819L367.797 178.403Z" fill="#CAD2F9"/>
<path d="M257.214 85.6074L213.231 96.3214L234.481 183.556L302.823 166.908L287.34 103.349L257.214 85.6074Z" fill="#E2E6FF"/>
<path d="M270.711 117.079L265.102 113.668L256.928 127.105L243.49 118.932L240.079 124.541L253.517 132.714L245.343 146.152L250.952 149.563L259.126 136.126L272.564 144.299L275.975 138.69L262.537 130.517L270.711 117.079Z" fill="#CAD2F9"/>
<path d="M411.337 93.4622H400.156V82.2812H396.177V93.4622H384.997V97.4413H396.177V108.621H400.156V97.4413H411.337V93.4622Z" fill="#E2E6FF"/>
<path d="M436.378 131.932H430.288V125.842H428.12V131.932H422.031V134.099H428.12V140.189H430.288V134.099H436.378V131.932Z" fill="#E2E6FF"/>
<path d="M369.171 121.306H361.796V113.932H359.171V121.306H351.797V123.931H359.171V131.306H361.796V123.931H369.171V121.306Z" fill="#E2E6FF"/>
<path d="M89.9621 120.157H78.7811V108.977H74.8021V120.157H63.6221V124.137H74.8021V135.317H78.7811V124.137H89.9621V120.157Z" fill="#E2E6FF"/>
<path d="M138.763 113.483H132.673V107.393H130.505V113.483H124.415V115.65H130.505V121.74H132.673V115.65H138.763V113.483Z" fill="#E2E6FF"/>
<path d="M101.686 163.146H94.3105V155.771H91.6855V163.146H84.3115V165.77H91.6855V173.145H94.3105V165.77H101.686V163.146Z" fill="#E2E6FF"/>
<path d="M346.53 74.9553C346.53 76.2943 345.445 77.3792 344.106 77.3792C342.767 77.3792 341.682 76.2943 341.682 74.9553C341.682 73.6173 342.767 72.5312 344.106 72.5312C345.445 72.5312 346.53 73.6163 346.53 74.9553Z" fill="#CAD2F9"/>
<path d="M455.982 162.102C455.982 164.637 453.927 166.692 451.392 166.692C448.857 166.692 446.802 164.637 446.802 162.102C446.802 159.567 448.857 157.512 451.392 157.512C453.927 157.512 455.982 159.567 455.982 162.102Z" fill="#CAD2F9"/>
<path d="M310.693 100.233C310.693 101.572 309.608 102.657 308.269 102.657C306.93 102.657 305.845 101.572 305.845 100.233C305.845 98.8936 306.93 97.8086 308.269 97.8086C309.608 97.8086 310.693 98.8936 310.693 100.233Z" fill="#CAD2F9"/>
<path d="M172.659 74.9552C172.659 77.4902 170.604 79.5452 168.069 79.5452C165.534 79.5452 163.479 77.4902 163.479 74.9552C163.479 72.4202 165.534 70.3652 168.069 70.3652C170.604 70.3652 172.659 72.4202 172.659 74.9552Z" fill="#CAD2F9"/>
<path d="M190.493 123.617C190.493 124.956 189.408 126.041 188.069 126.041C186.73 126.041 185.645 124.956 185.645 123.617C185.645 122.278 186.73 121.193 188.069 121.193C189.408 121.194 190.493 122.279 190.493 123.617Z" fill="#CAD2F9"/>
<path d="M48.8646 170.557C48.8646 171.896 47.7796 172.981 46.4406 172.981C45.1016 172.981 44.0166 171.896 44.0166 170.557C44.0166 169.218 45.1016 168.133 46.4406 168.133C47.7796 168.133 48.8646 169.218 48.8646 170.557Z" fill="#CAD2F9"/>
</svg>
